# xmcd
#
# Track frame offsets: 
#        150
#        2930
#        19977
#        35860
#        52292
#        70397
#        85847
#        102182
#        118382
#        133230
#        139660
#        152657
#        178065
#        194060
#        205130
#        231060
#
# Disc length: 3161 seconds
#
# Revision: 3
# Processed by: cddbd v1.5.1PL0 Copyright (c) Steve Scherf et al.
# Submitted via: ExactAudioCopy v0.95a4
#
DISCID=f60c5710
DTITLE=ABN - Seriewoordenaar
DYEAR=1999
DGENRE=Hip-Hop
TTITLE0=Proces verbaal (intro) (m.m.v. Adriaan Van Den Hoof)
TTITLE1=Wie is het?
TTITLE2=Poppekast
TTITLE3=Alo, Wa!
TTITLE4=Ex-liefdadigheid  (m.m.v. Luc De Vos)
TTITLE5=Mental: Posse Track (m.m.v. Sint Andries MC's en Phillibustas)
TTITLE6='k Geef gene fok!
TTITLE7=Teveel MC's (met Ya Kid K)
TTITLE8=Bloed, zweet and treinen
TTITLE9=Interlude IG-88
TTITLE10=Vet en fonky
TTITLE11=Liposuctie (met Casto en Def P)
TTITLE12=Seriewoordenaar
TTITLE13=Check!
TTITLE14=We zijn back and Outro-apparaat
TTITLE15=Spooktrack
EXTD=YEAR: 1999
EXTT0=met Adriaan Van Den Hoof
EXTT1=
EXTT2=
EXTT3=
EXTT4=met Luc Devos
EXTT5=met Sint Andries MC's en Phillibustas
EXTT6=
EXTT7=met Ya Kid K
EXTT8=
EXTT9=
EXTT10=
EXTT11=met Casto en Def P.
EXTT12=
EXTT13=
EXTT14=
EXTT15=
PLAYORDER=
